<?xml version="1.0" encoding="UTF-8" standalone="no"?>
<svg
   xmlns:dc="http://purl.org/dc/elements/1.1/"
   xmlns:cc="http://creativecommons.org/ns#"
   xmlns:rdf="http://www.w3.org/1999/02/22-rdf-syntax-ns#"
   xmlns:svg="http://www.w3.org/2000/svg"
   xmlns="http://www.w3.org/2000/svg"
   xmlns:sodipodi="http://sodipodi.sourceforge.net/DTD/sodipodi-0.dtd"
   xmlns:inkscape="http://www.inkscape.org/namespaces/inkscape"
   sodipodi:docname="Comunicación.svg"
   inkscape:version="1.0 (4035a4fb49, 2020-05-01)"
   id="svg8"
   version="1.1"
   viewBox="0 0 19 28"
   height="28mm"
   width="19mm">
  <defs
     id="defs2" />
  <sodipodi:namedview
     inkscape:window-maximized="1"
     inkscape:window-y="-8"
     inkscape:window-x="1672"
     inkscape:window-height="877"
     inkscape:window-width="1600"
     showgrid="false"
     inkscape:document-rotation="0"
     inkscape:current-layer="layer1"
     inkscape:document-units="mm"
     inkscape:cy="52.913386"
     inkscape:cx="52.913386"
     inkscape:zoom="5.6979911"
     inkscape:pageshadow="2"
     inkscape:pageopacity="0.0"
     borderopacity="1.0"
     bordercolor="#666666"
     pagecolor="#ffffff"
     id="base" />
  <metadata
     id="metadata5">
    <rdf:RDF>
      <cc:Work
         rdf:about="">
        <dc:format>image/svg+xml</dc:format>
        <dc:type
           rdf:resource="http://purl.org/dc/dcmitype/StillImage" />
        <dc:title></dc:title>
      </cc:Work>
    </rdf:RDF>
  </metadata>
  <g
     id="layer1"
     inkscape:groupmode="layer"
     inkscape:label="Capa 1">
    <path
       sodipodi:nodetypes="ssssssscsscssssscsssccsssssssssssscssssscsscscsscsssssss"
       id="path24"
       d="M 6.5863802,27.849153 C 6.5866927,27.816923 7.4590716,26.296168 8.5250568,24.469699 9.6883673,22.476473 10.430068,21.12905 10.380305,21.099326 10.334695,21.072086 10.035166,20.99089 9.7146613,20.918888 8.0866002,20.553136 5.7146188,19.212832 4.3317935,17.87726 3.7039095,17.270833 2.7649569,16.11852 2.1587123,15.210387 1.0903707,13.610048 0.69109509,12.617819 0.31931159,10.639334 0.18339399,9.9160346 0.15063299,9.4511526 0.15136439,8.2561355 0.15219499,6.9232946 0.17361929,6.6804383 0.36107909,5.8805829 0.87070119,3.7061175 1.4189156,2.3090049 2.2721087,1.0103641 2.6033244,0.50622186 2.8938213,0.09306882 2.9176567,0.0922465 c 0.023838,-8.3091e-4 1.6931584,2.055478 3.7096055,4.5695563 2.0164486,2.5140793 3.6944388,4.5710529 3.7288688,4.5710529 0.03443,0 0.53543,-0.3164575 1.113332,-0.7032388 0.577902,-0.3867809 1.080242,-0.7032384 1.116313,-0.7032384 0.03607,0 0.163473,0.1021767 0.283119,0.2270587 l 0.217536,0.2270593 -0.867218,1.0813537 c -0.47697,0.5947444 -0.858362,1.1079238 -0.847538,1.1403968 0.01082,0.03247 1.672285,2.078742 3.692135,4.547263 l 3.672455,4.48822 0.112383,0.556261 -0.837569,0.348441 c -1.465247,0.609567 -3.756465,1.031346 -5.205065,0.958178 -0.477248,-0.0241 -0.935362,-0.07035 -1.018031,-0.102757 -0.124846,-0.04895 -0.140666,-0.03381 -0.09339,0.08939 0.0313,0.08157 0.881295,1.563966 1.888869,3.294203 1.007574,1.730237 1.831952,3.163982 1.831952,3.186098 0,0.02211 -1.986647,0.04021 -4.414775,0.04021 -2.4281291,0 -4.4145447,-0.02637 -4.4142568,-0.0586 z m 7.5650258,-0.745535 c -0.06166,-0.246232 -3.14319,-5.446241 -3.194835,-5.391199 -0.04816,0.05133 -0.651383,1.081805 -3.0205758,5.160012 l -0.1929219,0.332084 h 3.2167987 c 2.58924,0 3.211869,-0.01969 3.191534,-0.100897 z m 0.394467,-6.50389 c 1.52016,-0.218489 3.369946,-0.722927 3.369946,-0.918989 0,-0.03552 -1.68541,-2.117906 -3.745357,-4.62752 L 10.425107,10.49028 10.75194,10.07947 C 11.087948,9.6571264 11.071174,9.6529243 10.524902,10.0226 L 10.205442,10.23878 6.6180182,5.7556081 C 4.644935,3.2898633 3.0130138,1.2707254 2.9915257,1.2686339 2.9700365,1.2665716 2.7899204,1.5193019 2.5912647,1.8303201 2.0204557,2.7239882 1.5294602,4.040738 1.0692674,5.9120044 0.87745899,6.6919489 0.85777239,6.9089561 0.85661239,8.2561338 c -0.00142,1.6375208 0.095698,2.3667382 0.50466581,3.7896752 0.4496308,1.564421 1.8917436,3.779775 3.4400709,5.284593 1.4236227,1.383616 3.4627123,2.532804 5.2361749,2.950999 0.64391,0.151837 0.781452,0.163732 0.855907,0.07402 0.07418,-0.08938 0.104414,-0.08541 0.18457,0.0242 0.218377,0.298649 2.093382,0.417653 3.467872,0.220101 z"
       style="fill:#000000;stroke-width:0.0781376" />
  </g>
</svg>
