<?xml version="1.0" encoding="UTF-8" standalone="no"?>
<svg
   xmlns:dc="http://purl.org/dc/elements/1.1/"
   xmlns:cc="http://creativecommons.org/ns#"
   xmlns:rdf="http://www.w3.org/1999/02/22-rdf-syntax-ns#"
   xmlns:svg="http://www.w3.org/2000/svg"
   xmlns="http://www.w3.org/2000/svg"
   xmlns:sodipodi="http://sodipodi.sourceforge.net/DTD/sodipodi-0.dtd"
   xmlns:inkscape="http://www.inkscape.org/namespaces/inkscape"
   inkscape:version="1.0 (4035a4fb49, 2020-05-01)"
   sodipodi:docname="FaroINEGI.svg"
   xml:space="preserve"
   viewBox="0 0 99.999999 99.999999"
   height="100"
   width="100"
   y="0px"
   x="0px"
   id="Capa_1"
   version="1.1"><metadata
   id="metadata41"><rdf:RDF><cc:Work
       rdf:about=""><dc:format>image/svg+xml</dc:format><dc:type
         rdf:resource="http://purl.org/dc/dcmitype/StillImage" /><dc:title></dc:title></cc:Work></rdf:RDF></metadata><defs
   id="defs39" /><sodipodi:namedview
   inkscape:current-layer="Capa_1"
   inkscape:window-maximized="1"
   inkscape:window-y="-8"
   inkscape:window-x="-8"
   inkscape:cy="50"
   inkscape:cx="50"
   inkscape:zoom="7.53"
   showgrid="false"
   id="namedview37"
   inkscape:window-height="1027"
   inkscape:window-width="1680"
   inkscape:pageshadow="2"
   inkscape:pageopacity="0"
   guidetolerance="10"
   gridtolerance="10"
   objecttolerance="10"
   borderopacity="1"
   bordercolor="#666666"
   pagecolor="#ffffff" />

<g
   id="g6">
</g>
<g
   id="g8">
</g>
<g
   id="g10">
</g>
<g
   id="g12">
</g>
<g
   id="g14">
</g>
<g
   id="g16">
</g>
<g
   id="g18">
</g>
<g
   id="g20">
</g>
<g
   id="g22">
</g>
<g
   id="g24">
</g>
<g
   id="g26">
</g>
<g
   id="g28">
</g>
<g
   id="g30">
</g>
<g
   id="g32">
</g>
<g
   id="g34">
</g>
<path
   d="M 47.910613,0.78816769 39.657362,32.787298 7.6312926,27.260334 30.375467,50.630979 9.7206838,76.47258 40.717299,67.844092 52.089388,99.211832 60.342639,67.212701 92.368707,72.739665 69.624528,49.369021 90.279316,23.528248 59.282701,32.156733 Z M 49.945438,35.5032 a 14.05669,14.497061 0 0 1 0.05456,0 A 14.05669,14.497061 0 0 1 64.056839,50.000416 14.05669,14.497061 0 0 1 49.999999,64.496799 14.05669,14.497061 0 0 1 35.943157,50.000416 14.05669,14.497061 0 0 1 49.945436,35.5032 Z m 0.05456,10.421711 a 3.95143,4.0752211 0 0 0 -3.951709,4.074675 3.95143,4.0752211 0 0 0 3.951709,4.075503 3.95143,4.0752211 0 0 0 3.951704,-4.075503 3.95143,4.0752211 0 0 0 -3.951704,-4.074675 z"
   style="opacity:1;fill:#000000;stroke-width:1.02405;stroke-linecap:round;stroke-linejoin:round;paint-order:markers stroke fill"
   id="path65" /></svg>
